<svg width="200" height="200" viewBox="0 0 200 200" xmlns="http://www.w3.org/2000/svg">
  <!-- Fond du logo -->
  <rect width="200" height="200" rx="20" fill="#007BFF"/>
  
  <!-- Icône de la liste -->
  <rect x="50" y="50" width="100" height="10" rx="5" fill="white"/>
  <rect x="50" y="80" width="100" height="10" rx="5" fill="white"/>
  <rect x="50" y="110" width="100" height="10" rx="5" fill="white"/>
  
  <!-- Icônes de coche -->
  <polyline points="30,52 38,60 46,45" stroke="white" stroke-width="5" fill="none" stroke-linecap="round" stroke-linejoin="round"/>
  <polyline points="30,82 38,90 46,75" stroke="white" stroke-width="5" fill="none" stroke-linecap="round" stroke-linejoin="round"/>
  <polyline points="30,112 38,120 46,105" stroke="white" stroke-width="5" fill="none" stroke-linecap="round" stroke-linejoin="round"/>
  
  <!-- Icône de la fusée bleu clair harmonieux -->
  <path d="M100 140 C120 120, 120 80, 100 60 C80 80, 80 120, 100 140 Z" fill="#FFD700"/>
  <polygon points="100,50 110,70 90,70" fill="#FFD700"/>
  <rect x="95" y="140" width="10" height="20" fill="#FFD700"/>
  <polygon points="95,160 105,160 100,175" fill="#FF8C00"/>
</svg>
